<svg width="208" height="57" viewBox="0 0 208 57" fill="none" xmlns="http://www.w3.org/2000/svg">
<path d="M54 41.2433V55.9991C52.6186 55.9991 51.2722 55.5485 50.1516 54.711C49.0309 53.8734 48.1927 52.6915 47.7558 51.3325L36 14.7548L24.2424 51.3334C23.8059 52.6925 22.968 53.8746 21.8474 54.7122C20.7268 55.5497 19.3804 56.0003 17.9991 56C16.6179 56.0001 15.2718 55.5494 14.1514 54.7119C13.031 53.8743 12.1932 52.6923 11.7567 51.3334L0 14.7548V0C1.38114 2.68888e-05 2.72725 0.450743 3.84762 1.28829C4.968 2.12584 5.80582 3.30776 6.2424 4.66659L18 41.2424L29.7567 4.66659C30.1933 3.30776 31.0311 2.12584 32.1515 1.28829C33.2719 0.450743 34.618 2.68888e-05 35.9991 0C37.3802 2.68888e-05 38.7263 0.450743 39.8467 1.28829C40.9671 2.12584 41.8049 3.30776 42.2415 4.66659L54 41.2433Z" fill="#FF8D7F"/>
<path d="M73.2233 26.0612C72.7338 26.0612 72.3402 25.9287 72.0361 25.6636C71.732 25.3986 71.4882 24.9888 71.2864 24.4345L64.1259 2.27843C63.9256 1.65124 63.9646 1.12702 64.2428 0.705787C64.5211 0.28455 64.9819 0.0736203 65.6254 0.072998C66.114 0.072998 66.4975 0.194329 66.7751 0.434192C67.0528 0.674054 67.2692 1.06138 67.4253 1.59151L73.9228 22.3382H72.6899L79.3563 1.66337C79.556 1.13325 79.7892 0.735653 80.0558 0.470591C80.3225 0.205529 80.678 0.072998 81.1225 0.072998C81.5663 0.072998 81.916 0.205529 82.1717 0.470591C82.4274 0.735653 82.6551 1.14538 82.8548 1.69977L89.386 22.3382H88.2902L94.8488 1.59524C95.004 1.08814 95.2208 0.708588 95.499 0.456592C95.7772 0.204596 96.1492 0.0779751 96.6149 0.0767307C97.1921 0.0767307 97.6198 0.28766 97.898 0.70952C98.1762 1.13138 98.2039 1.65559 97.9811 2.28216L90.7841 24.4709C90.5851 25.001 90.3415 25.3986 90.0536 25.6636C89.7656 25.9287 89.3769 26.0612 88.8874 26.0612C88.376 26.0612 87.976 25.9287 87.6875 25.6636C87.3989 25.3986 87.1657 24.9888 86.988 24.4345L80.6869 4.88052H81.4174L75.0561 24.4709C74.8783 25.001 74.6503 25.3986 74.3721 25.6636C74.0938 25.9287 73.7109 26.0612 73.2233 26.0612Z" fill="#FF8D7F"/>
<path d="M111.843 26.1329C109.622 26.1329 107.684 25.5969 106.028 24.5248C104.373 23.4527 103.094 21.9345 102.193 19.9702C101.293 18.0065 100.843 15.6993 100.843 13.0487C100.843 11.0489 101.098 9.24762 101.609 7.64481C102.12 6.04199 102.853 4.66846 103.809 3.52421C104.751 2.39021 105.937 1.49369 107.274 0.904385C108.629 0.302706 110.151 0.00124442 111.84 0C114.084 0 116.027 0.530436 117.671 1.59131C119.314 2.65218 120.586 4.15824 121.486 6.1095C122.386 8.06138 122.836 10.3636 122.836 13.016C122.836 15.0171 122.58 16.8243 122.07 18.4377C121.559 20.0511 120.821 21.4368 119.857 22.5947C118.91 23.7364 117.719 24.6394 116.375 25.2332C115.021 25.833 113.511 26.1329 111.843 26.1329ZM111.843 22.8803C113.398 22.8803 114.725 22.4948 115.825 21.7239C116.925 20.953 117.769 19.833 118.357 18.364C118.945 16.8943 119.24 15.1232 119.24 13.0506C119.24 9.93952 118.596 7.53001 117.308 5.82204C116.02 4.11406 114.198 3.25852 111.843 3.25541C110.289 3.25541 108.961 3.63496 107.861 4.39406C106.761 5.15316 105.917 6.26754 105.329 7.7372C104.739 9.20687 104.445 10.978 104.446 13.0506C104.446 16.1349 105.096 18.5447 106.395 20.2801C107.695 22.0154 109.511 22.8822 111.843 22.8803Z" fill="#FF8D7F"/>
<path d="M129.139 26.0612C128.627 26.0612 128.231 25.9057 127.951 25.5946C127.671 25.2835 127.533 24.8495 127.535 24.2926V1.84445C127.535 1.26579 127.679 0.825887 127.968 0.524736C128.256 0.223586 128.645 0.0730107 129.134 0.0730107C129.6 0.0730107 129.961 0.163231 130.217 0.343672C130.473 0.524114 130.711 0.84362 130.933 1.30219L139.664 18.9764H138.636L147.332 1.30219C147.554 0.844864 147.787 0.525358 148.033 0.343672C148.278 0.161986 148.633 0.0717663 149.098 0.0730107C149.585 0.0730107 149.963 0.223586 150.232 0.524736C150.5 0.825887 150.634 1.26579 150.632 1.84445V24.2898C150.632 24.8442 150.504 25.2782 150.248 25.5918C149.992 25.9054 149.609 26.0609 149.098 26.0584C148.587 26.0584 148.198 25.9029 147.932 25.5918C147.666 25.2807 147.533 24.8467 147.532 24.2898V5.63932H148.263L140.533 21.1455C140.398 21.4469 140.205 21.7174 139.966 21.9406C139.766 22.1099 139.488 22.1942 139.133 22.1936C138.822 22.208 138.516 22.1124 138.266 21.9229C138.017 21.7076 137.813 21.4432 137.666 21.1455L129.869 5.60292H130.669V24.2898C130.669 24.8442 130.541 25.2782 130.286 25.5918C130.03 25.9054 129.648 26.0619 129.139 26.0612Z" fill="#FF8D7F"/>
<path d="M158.027 25.8081C157.427 25.8081 156.966 25.6332 156.644 25.2835C156.322 24.9339 156.161 24.4339 156.161 23.7837V2.35005C156.161 1.69922 156.322 1.19927 156.644 0.850209C156.966 0.501148 157.427 0.326306 158.027 0.325684H170.19C170.656 0.325684 171.012 0.452615 171.255 0.705545C171.499 0.958474 171.621 1.3262 171.621 1.80779C171.621 2.31365 171.498 2.70004 171.255 2.96417C171.013 3.2283 170.656 3.36177 170.19 3.36177H159.493V11.35H169.456C169.943 11.35 170.304 11.4826 170.539 11.7476C170.774 12.0127 170.891 12.386 170.889 12.8676C170.889 13.3735 170.773 13.7527 170.539 14.0053C170.306 14.2579 169.945 14.3846 169.456 14.3852H159.493V22.772H170.19C170.656 22.772 171.012 22.9045 171.255 23.1696C171.499 23.4346 171.621 23.808 171.621 24.2896C171.621 24.796 171.499 25.1756 171.255 25.4282C171.011 25.6811 170.656 25.8081 170.19 25.8081H158.027Z" fill="#FF8D7F"/>
<path d="M177.42 26.0612C176.908 26.0612 176.509 25.9057 176.221 25.5946C175.933 25.2835 175.788 24.8377 175.787 24.2571V1.9527C175.787 1.3504 175.926 0.88654 176.203 0.561123C176.481 0.235706 176.853 0.072998 177.32 0.072998C177.72 0.072998 178.024 0.151397 178.233 0.308195C178.442 0.464992 178.692 0.748097 178.983 1.15751L192.715 20.7843H191.882V1.84443C191.882 1.29004 192.021 0.856052 192.298 0.542457C192.576 0.228862 192.97 0.073309 193.481 0.0757979C194.014 0.0757979 194.414 0.231351 194.681 0.542457C194.948 0.853563 195.081 1.28756 195.08 1.84443V24.2898C195.08 24.8442 194.952 25.2782 194.697 25.5918C194.574 25.744 194.419 25.8653 194.242 25.9462C194.066 26.0272 193.874 26.0656 193.681 26.0584C193.336 26.073 192.995 25.9851 192.698 25.8055C192.441 25.6369 192.169 25.3476 191.882 24.9375L178.22 5.34718H178.986V24.2543C178.986 24.8324 178.852 25.2782 178.586 25.5918C178.319 25.9054 177.93 26.0619 177.42 26.0612Z" fill="#FF8D7F"/>
<path d="M65.5469 56.1937C65.1025 56.1937 64.7469 56.0851 64.4803 55.8679C64.3495 55.7628 64.2408 55.6319 64.1607 55.4829C64.0805 55.334 64.0305 55.17 64.0136 55.0009C63.9686 54.64 64.0352 54.2303 64.2136 53.7717L73.2443 31.7958C73.4665 31.2172 73.7496 30.8074 74.0935 30.5666C74.4314 30.3284 74.8328 30.2023 75.2433 30.2054C75.643 30.2059 76.0329 30.332 76.3601 30.5666C76.7047 30.8081 76.9878 31.2178 77.2094 31.7958L86.2401 53.7717C86.44 54.23 86.514 54.6453 86.4729 55.0186C86.4602 55.1853 86.4154 55.3478 86.3411 55.4967C86.2669 55.6457 86.1646 55.7782 86.0401 55.8866C85.7965 56.0907 85.4523 56.1931 85.0072 56.1937C84.5202 56.1937 84.1312 56.0611 83.8402 55.7961C83.5492 55.531 83.2938 55.1213 83.074 54.5669L80.7389 48.7141L82.3051 49.7267H68.1121L69.6453 48.7141L67.3459 54.5697C67.1237 55.1484 66.8802 55.564 66.6153 55.8166C66.3469 56.0667 65.9907 56.1937 65.5469 56.1937ZM75.1766 34.6154L70.1458 47.5549L69.3129 46.6878H81.075L80.3079 47.5549L75.2433 34.6154H75.1766Z" fill="#FF8D7F"/>
<path d="M91.9375 56.1941C91.381 56.1941 90.9533 56.0255 90.6544 55.6882C90.3555 55.351 90.2054 54.8809 90.2042 54.278V32.3749C90.2042 31.749 90.3598 31.273 90.6709 30.9469C90.982 30.6209 91.4154 30.4582 91.9713 30.4588H99.9353C102.468 30.4588 104.423 31.1096 105.8 32.4113C107.177 33.713 107.866 35.5563 107.866 37.9412C107.866 39.4831 107.555 40.8084 106.933 41.9171C106.311 43.0259 105.406 43.8693 104.217 44.4474C103.028 45.0254 101.601 45.3144 99.9353 45.3144L101.101 44.8086C101.99 44.8086 102.762 45.0494 103.417 45.531C104.072 46.0125 104.667 46.7838 105.2 47.8446L108.066 53.6312C108.274 54.011 108.382 54.4392 108.382 54.8744C108.383 55.0538 108.349 55.2316 108.28 55.3966C108.211 55.5616 108.11 55.7102 107.982 55.8329C107.726 56.0728 107.365 56.1941 106.898 56.1941C106.411 56.1941 106.016 56.0796 105.711 55.8507C105.407 55.6217 105.135 55.2795 104.895 54.824L101.396 47.812C100.93 46.8724 100.397 46.24 99.7965 45.9145C99.1962 45.5891 98.4078 45.4264 97.4313 45.4264H93.6698V54.2817C93.6698 54.8847 93.5255 55.3547 93.237 55.692C92.9484 56.0292 92.5152 56.1966 91.9375 56.1941ZM93.6726 42.6031H99.3682C101.056 42.6031 102.334 42.2177 103.204 41.4468C104.073 40.6758 104.506 39.5313 104.503 38.0131C104.503 36.5198 104.07 35.3873 103.204 34.6158C102.337 33.8443 101.059 33.4585 99.3682 33.4585H93.6698L93.6726 42.6031Z" fill="#FF8D7F"/>
<path d="M122.794 56.2658C120.572 56.2658 118.634 55.7297 116.978 54.6577C115.323 53.5856 114.045 52.0674 113.143 50.1031C112.243 48.1394 111.793 45.8322 111.793 43.1816C111.793 41.1812 112.049 39.3799 112.56 37.7777C113.07 36.1755 113.804 34.802 114.759 33.6571C115.703 32.5223 116.891 31.6257 118.23 31.0373C119.584 30.435 121.106 30.1335 122.796 30.1329C125.04 30.1329 126.983 30.6618 128.626 31.7195C130.27 32.7773 131.541 34.2833 132.442 36.2377C133.342 38.189 133.792 40.4911 133.791 43.1443C133.791 45.1453 133.536 46.9525 133.025 48.5659C132.514 50.1793 131.775 51.5665 130.807 52.7276C129.861 53.8693 128.669 54.7723 127.325 55.3661C125.97 55.9659 124.459 56.2658 122.794 56.2658ZM122.794 53.0132C124.348 53.0132 125.675 52.6277 126.775 51.8568C127.875 51.0859 128.72 49.9659 129.308 48.4968C129.896 47.0272 130.19 45.256 130.191 43.1835C130.191 40.0724 129.547 37.6629 128.258 35.9549C126.97 34.2469 125.149 33.3914 122.794 33.3883C121.238 33.3883 119.911 33.7678 118.811 34.5269C117.712 35.286 116.868 36.4004 116.279 37.8701C115.69 39.3404 115.396 41.1115 115.396 43.1835C115.396 46.2678 116.046 48.6776 117.346 50.4129C118.645 52.1483 120.461 53.015 122.794 53.0132Z" fill="#FF8D7F"/>
<path d="M147.918 56.2657C146.34 56.2657 144.952 56.0429 143.753 55.5974C142.605 55.1859 141.571 54.498 140.739 53.5917C139.928 52.7007 139.311 51.5922 138.889 50.2663C138.466 48.9404 138.255 47.41 138.256 45.6753V32.0853C138.256 31.4593 138.406 30.9892 138.706 30.675C139.006 30.3608 139.433 30.2052 139.985 30.2084C140.539 30.2084 140.965 30.3639 141.263 30.675C141.562 30.9861 141.711 31.4562 141.713 32.0853V45.6034C141.713 48.0854 142.24 49.9409 143.295 51.1697C144.35 52.3986 145.889 53.013 147.91 53.013C149.954 53.013 151.498 52.3986 152.542 51.1697C153.586 49.9409 154.108 48.0854 154.108 45.6034V32.0853C154.108 31.4593 154.258 30.9892 154.559 30.675C154.859 30.3608 155.275 30.2052 155.808 30.2084C156.363 30.2084 156.785 30.3639 157.074 30.675C157.364 30.9861 157.508 31.4562 157.507 32.0853V45.6753C157.507 47.9887 157.146 49.9347 156.424 51.5132C155.702 53.0918 154.63 54.2783 153.209 55.0729C151.792 55.8681 150.028 56.2657 147.918 56.2657Z" fill="#FF8D7F"/>
<path d="M164.48 56.1939C163.968 56.1939 163.568 56.0383 163.28 55.7272C162.991 55.4161 162.847 54.9703 162.847 54.3898V32.0853C162.847 31.483 162.986 31.0192 163.263 30.6938C163.541 30.3683 163.913 30.2056 164.379 30.2056C164.779 30.2056 165.083 30.284 165.292 30.4408C165.501 30.5976 165.751 30.8807 166.042 31.2901L179.773 50.9169H178.94V31.9771C178.94 31.4227 179.079 30.9887 179.357 30.6751C179.634 30.3615 180.03 30.2059 180.544 30.2084C181.077 30.2084 181.477 30.364 181.743 30.6751C182.009 30.9862 182.142 31.4202 182.143 31.9771V54.4224C182.143 54.9768 182.015 55.4124 181.76 55.7291C181.637 55.8813 181.481 56.0025 181.305 56.0834C181.129 56.1644 180.937 56.2028 180.744 56.1957C180.399 56.2101 180.057 56.1223 179.76 55.9428C179.504 55.7742 179.232 55.4849 178.944 55.0748L165.282 35.4845H166.048V54.387C166.048 54.965 165.915 55.4108 165.648 55.7244C165.382 56.038 164.992 56.1945 164.48 56.1939Z" fill="#FF8D7F"/>
<path d="M189.47 55.9412C188.871 55.9412 188.41 55.7663 188.088 55.4167C187.766 55.067 187.604 54.567 187.604 53.9168V32.4832C187.604 31.833 187.765 31.333 188.088 30.9833C188.41 30.6336 188.871 30.4588 189.47 30.4588H195.901C199.766 30.4588 202.749 31.5492 204.85 33.7301C206.951 35.9109 208.001 39.0615 208 43.1818C208 45.2301 207.733 47.0495 207.2 48.6398C206.667 50.2302 205.883 51.5617 204.848 52.6344C203.78 53.7292 202.489 54.5688 201.066 55.0928C199.578 55.6584 197.856 55.9415 195.901 55.9421L189.47 55.9412ZM191.069 52.7959H195.701C197.168 52.7959 198.439 52.5974 199.516 52.2004C200.548 51.8328 201.479 51.2195 202.232 50.4113C202.963 49.6161 203.507 48.6159 203.865 47.4107C204.223 46.2054 204.401 44.7958 204.398 43.1818C204.398 39.9774 203.671 37.5797 202.216 35.9887C200.761 34.3977 198.589 33.6028 195.701 33.6041H191.069V52.7959Z" fill="#FF8D7F"/>
</svg>
